<svg xmlns="http://www.w3.org/2000/svg" xmlns:xlink="http://www.w3.org/1999/xlink" width="500" zoomAndPan="magnify" viewBox="0 0 375 374.999991" height="500" preserveAspectRatio="xMidYMid meet" version="1.0"><defs><clipPath id="01e1d582e8"><path d="M 129.726562 76.078125 L 198.648438 76.078125 L 198.648438 281.992188 L 129.726562 281.992188 Z M 129.726562 76.078125 " clip-rule="nonzero"/></clipPath><clipPath id="f44ae8ca5c"><path d="M 133 75.382812 L 354.441406 75.382812 L 354.441406 297.59375 L 133 297.59375 Z M 133 75.382812 " clip-rule="nonzero"/></clipPath><clipPath id="396b8232a1"><path d="M 20.429688 77 L 242 77 L 242 297.6875 L 20.429688 297.6875 Z M 20.429688 77 " clip-rule="nonzero"/></clipPath></defs><g clip-path="url(#01e1d582e8)"><path fill="#f46530" d="M 198.648438 110.539062 L 198.648438 247.53125 C 198.648438 266.5625 183.21875 281.992188 164.1875 281.992188 C 145.15625 281.992188 129.726562 266.5625 129.726562 247.53125 L 129.726562 110.539062 C 129.726562 91.503906 145.15625 76.078125 164.1875 76.078125 C 183.21875 76.078125 198.648438 91.503906 198.648438 110.539062 Z M 198.648438 110.539062 " fill-opacity="1" fill-rule="nonzero"/></g><g clip-path="url(#f44ae8ca5c)"><path fill="#f46530" d="M 133.457031 109.417969 C 133.457031 116.992188 136.011719 124.339844 140.699219 130.285156 L 272.71875 297.601562 L 354.28125 297.601562 L 193.894531 88.894531 C 174.285156 63.375 133.457031 77.238281 133.457031 109.417969 Z M 133.457031 109.417969 " fill-opacity="1" fill-rule="nonzero"/></g><g clip-path="url(#396b8232a1)"><path fill="#ffffff" d="M 20.589844 297.695312 L 20.589844 111.425781 C 20.589844 78.621094 62.199219 64.492188 82.191406 90.507812 L 241.414062 297.695312 L 159.847656 297.695312 L 92.207031 213.179688 L 92.207031 297.695312 Z M 20.589844 297.695312 " fill-opacity="1" fill-rule="nonzero"/></g></svg>