<svg xmlns="http://www.w3.org/2000/svg" xmlns:xlink="http://www.w3.org/1999/xlink" width="200" zoomAndPan="magnify" viewBox="0 0 150 37.5" height="50" preserveAspectRatio="xMidYMid meet" version="1.0"><defs><g/><clipPath id="045f9c455f"><path d="M 12.933594 12.390625 L 16.625 12.390625 L 16.625 23.421875 L 12.933594 23.421875 Z M 12.933594 12.390625 " clip-rule="nonzero"/></clipPath><clipPath id="6ed38a6279"><path d="M 13.105469 12.355469 L 24.972656 12.355469 L 24.972656 24.257812 L 13.105469 24.257812 Z M 13.105469 12.355469 " clip-rule="nonzero"/></clipPath><clipPath id="56ec6a3106"><path d="M 7.078125 12.429688 L 18.941406 12.429688 L 18.941406 24.261719 L 7.078125 24.261719 Z M 7.078125 12.429688 " clip-rule="nonzero"/></clipPath></defs><g clip-path="url(#045f9c455f)"><path fill="#f46530" d="M 16.625 14.238281 L 16.625 21.578125 C 16.625 22.597656 15.800781 23.421875 14.78125 23.421875 C 13.761719 23.421875 12.933594 22.597656 12.933594 21.578125 L 12.933594 14.238281 C 12.933594 13.21875 13.761719 12.390625 14.78125 12.390625 C 15.800781 12.390625 16.625 13.21875 16.625 14.238281 Z M 16.625 14.238281 " fill-opacity="1" fill-rule="nonzero"/></g><g clip-path="url(#6ed38a6279)"><path fill="#f46530" d="M 13.132812 14.179688 C 13.132812 14.582031 13.269531 14.976562 13.523438 15.296875 L 20.59375 24.257812 L 24.964844 24.257812 L 16.371094 13.078125 C 15.320312 11.710938 13.132812 12.453125 13.132812 14.179688 Z M 13.132812 14.179688 " fill-opacity="1" fill-rule="nonzero"/></g><g clip-path="url(#56ec6a3106)"><path fill="#112934" d="M 7.089844 24.265625 L 7.089844 14.285156 C 7.089844 12.527344 9.316406 11.769531 10.386719 13.164062 L 18.917969 24.265625 L 14.546875 24.265625 L 10.925781 19.738281 L 10.925781 24.265625 Z M 7.089844 24.265625 " fill-opacity="1" fill-rule="nonzero"/></g><g fill="#112934" fill-opacity="1"><g transform="translate(28.281077, 21.957004)"><g><path d="M 9.03125 0 L 9.015625 -4.78125 L 6.6875 -0.890625 L 5.5625 -0.890625 L 3.25 -4.640625 L 3.25 0 L 0.90625 0 L 0.90625 -9.015625 L 3 -9.015625 L 6.171875 -3.8125 L 9.25 -9.015625 L 11.359375 -9.015625 L 11.375 0 Z M 9.03125 0 "/></g></g></g><g fill="#112934" fill-opacity="1"><g transform="translate(41.027175, 21.957004)"><g><path d="M 3.765625 -7.09375 C 4.921875 -7.09375 5.800781 -6.828125 6.40625 -6.296875 C 7.019531 -5.773438 7.328125 -4.96875 7.328125 -3.875 L 7.328125 0 L 5.046875 0 L 5.046875 -0.90625 C 4.691406 -0.226562 4.003906 0.109375 2.984375 0.109375 C 2.441406 0.109375 1.972656 0.015625 1.578125 -0.171875 C 1.179688 -0.359375 0.882812 -0.613281 0.6875 -0.9375 C 0.488281 -1.257812 0.390625 -1.625 0.390625 -2.03125 C 0.390625 -2.695312 0.640625 -3.210938 1.140625 -3.578125 C 1.648438 -3.941406 2.429688 -4.125 3.484375 -4.125 L 4.875 -4.125 C 4.832031 -4.863281 4.34375 -5.234375 3.40625 -5.234375 C 3.0625 -5.234375 2.71875 -5.175781 2.375 -5.0625 C 2.03125 -4.957031 1.738281 -4.8125 1.5 -4.625 L 0.6875 -6.28125 C 1.070312 -6.539062 1.539062 -6.738281 2.09375 -6.875 C 2.644531 -7.019531 3.203125 -7.09375 3.765625 -7.09375 Z M 3.671875 -1.421875 C 3.953125 -1.421875 4.195312 -1.488281 4.40625 -1.625 C 4.625 -1.769531 4.78125 -1.972656 4.875 -2.234375 L 4.875 -2.84375 L 3.828125 -2.84375 C 3.109375 -2.84375 2.75 -2.609375 2.75 -2.140625 C 2.75 -1.921875 2.832031 -1.742188 3 -1.609375 C 3.164062 -1.484375 3.390625 -1.421875 3.671875 -1.421875 Z M 3.671875 -1.421875 "/></g></g></g><g fill="#112934" fill-opacity="1"><g transform="translate(49.576129, 21.957004)"><g><path d="M 0.78125 -6.984375 L 3.234375 -6.984375 L 3.234375 0 L 0.78125 0 Z M 2.015625 -7.75 C 1.566406 -7.75 1.203125 -7.875 0.921875 -8.125 C 0.648438 -8.375 0.515625 -8.679688 0.515625 -9.046875 C 0.515625 -9.421875 0.648438 -9.734375 0.921875 -9.984375 C 1.203125 -10.234375 1.566406 -10.359375 2.015625 -10.359375 C 2.460938 -10.359375 2.820312 -10.238281 3.09375 -10 C 3.363281 -9.757812 3.5 -9.457031 3.5 -9.09375 C 3.5 -8.707031 3.363281 -8.382812 3.09375 -8.125 C 2.820312 -7.875 2.460938 -7.75 2.015625 -7.75 Z M 2.015625 -7.75 "/></g></g></g><g fill="#112934" fill-opacity="1"><g transform="translate(54.069562, 21.957004)"><g><path d="M 5.328125 -7.09375 C 6.191406 -7.09375 6.890625 -6.832031 7.421875 -6.3125 C 7.953125 -5.800781 8.21875 -5.023438 8.21875 -3.984375 L 8.21875 0 L 5.765625 0 L 5.765625 -3.59375 C 5.765625 -4.539062 5.382812 -5.015625 4.625 -5.015625 C 4.195312 -5.015625 3.859375 -4.878906 3.609375 -4.609375 C 3.359375 -4.335938 3.234375 -3.925781 3.234375 -3.375 L 3.234375 0 L 0.78125 0 L 0.78125 -6.984375 L 3.109375 -6.984375 L 3.109375 -6.21875 C 3.390625 -6.5 3.71875 -6.710938 4.09375 -6.859375 C 4.46875 -7.015625 4.878906 -7.09375 5.328125 -7.09375 Z M 5.328125 -7.09375 "/></g></g></g><g fill="#112934" fill-opacity="1"><g transform="translate(63.494003, 21.957004)"><g><path d="M 4.0625 0.1875 C 3.332031 0.1875 2.625 0.0976562 1.9375 -0.078125 C 1.257812 -0.265625 0.703125 -0.507812 0.265625 -0.8125 L 1.109375 -2.6875 C 1.515625 -2.425781 1.984375 -2.210938 2.515625 -2.046875 C 3.046875 -1.878906 3.566406 -1.796875 4.078125 -1.796875 C 5.054688 -1.796875 5.546875 -2.039062 5.546875 -2.53125 C 5.546875 -2.789062 5.40625 -2.984375 5.125 -3.109375 C 4.851562 -3.234375 4.40625 -3.363281 3.78125 -3.5 C 3.101562 -3.644531 2.535156 -3.800781 2.078125 -3.96875 C 1.628906 -4.132812 1.238281 -4.398438 0.90625 -4.765625 C 0.582031 -5.140625 0.421875 -5.640625 0.421875 -6.265625 C 0.421875 -6.816406 0.570312 -7.3125 0.875 -7.75 C 1.175781 -8.195312 1.625 -8.546875 2.21875 -8.796875 C 2.8125 -9.054688 3.546875 -9.1875 4.421875 -9.1875 C 5.003906 -9.1875 5.582031 -9.117188 6.15625 -8.984375 C 6.738281 -8.859375 7.25 -8.664062 7.6875 -8.40625 L 6.90625 -6.515625 C 6.039062 -6.972656 5.207031 -7.203125 4.40625 -7.203125 C 3.894531 -7.203125 3.523438 -7.128906 3.296875 -6.984375 C 3.066406 -6.835938 2.953125 -6.644531 2.953125 -6.40625 C 2.953125 -6.15625 3.085938 -5.96875 3.359375 -5.84375 C 3.628906 -5.726562 4.070312 -5.609375 4.6875 -5.484375 C 5.375 -5.335938 5.941406 -5.179688 6.390625 -5.015625 C 6.835938 -4.847656 7.226562 -4.582031 7.5625 -4.21875 C 7.894531 -3.851562 8.0625 -3.359375 8.0625 -2.734375 C 8.0625 -2.191406 7.910156 -1.703125 7.609375 -1.265625 C 7.304688 -0.828125 6.851562 -0.472656 6.25 -0.203125 C 5.65625 0.0546875 4.925781 0.1875 4.0625 0.1875 Z M 4.0625 0.1875 "/></g></g></g><g fill="#112934" fill-opacity="1"><g transform="translate(72.287585, 21.957004)"><g><path d="M 8.140625 -6.984375 L 5.125 0.28125 C 4.769531 1.144531 4.335938 1.75 3.828125 2.09375 C 3.328125 2.4375 2.710938 2.609375 1.984375 2.609375 C 1.609375 2.609375 1.234375 2.550781 0.859375 2.4375 C 0.492188 2.320312 0.195312 2.171875 -0.03125 1.984375 L 0.8125 0.265625 C 0.945312 0.398438 1.109375 0.503906 1.296875 0.578125 C 1.492188 0.648438 1.691406 0.6875 1.890625 0.6875 C 2.117188 0.6875 2.304688 0.640625 2.453125 0.546875 C 2.609375 0.453125 2.738281 0.300781 2.84375 0.09375 L -0.140625 -6.984375 L 2.375 -6.984375 L 4.078125 -2.71875 L 5.8125 -6.984375 Z M 8.140625 -6.984375 "/></g></g></g><g fill="#112934" fill-opacity="1"><g transform="translate(80.733545, 21.957004)"><g><path d="M 3.328125 0.109375 C 2.742188 0.109375 2.164062 0.046875 1.59375 -0.078125 C 1.03125 -0.210938 0.578125 -0.390625 0.234375 -0.609375 L 0.96875 -2.28125 C 1.28125 -2.082031 1.65625 -1.925781 2.09375 -1.8125 C 2.53125 -1.695312 2.96875 -1.640625 3.40625 -1.640625 C 3.789062 -1.640625 4.066406 -1.675781 4.234375 -1.75 C 4.410156 -1.832031 4.5 -1.953125 4.5 -2.109375 C 4.5 -2.265625 4.394531 -2.375 4.1875 -2.4375 C 3.988281 -2.5 3.671875 -2.5625 3.234375 -2.625 C 2.671875 -2.695312 2.191406 -2.785156 1.796875 -2.890625 C 1.410156 -3.003906 1.078125 -3.210938 0.796875 -3.515625 C 0.515625 -3.816406 0.375 -4.238281 0.375 -4.78125 C 0.375 -5.226562 0.503906 -5.625 0.765625 -5.96875 C 1.035156 -6.3125 1.425781 -6.582031 1.9375 -6.78125 C 2.445312 -6.988281 3.054688 -7.09375 3.765625 -7.09375 C 4.273438 -7.09375 4.78125 -7.039062 5.28125 -6.9375 C 5.78125 -6.832031 6.195312 -6.6875 6.53125 -6.5 L 5.796875 -4.84375 C 5.171875 -5.1875 4.5 -5.359375 3.78125 -5.359375 C 3.394531 -5.359375 3.113281 -5.3125 2.9375 -5.21875 C 2.757812 -5.125 2.671875 -5.003906 2.671875 -4.859375 C 2.671875 -4.703125 2.765625 -4.585938 2.953125 -4.515625 C 3.148438 -4.453125 3.476562 -4.390625 3.9375 -4.328125 C 4.507812 -4.242188 4.984375 -4.144531 5.359375 -4.03125 C 5.742188 -3.914062 6.070312 -3.707031 6.34375 -3.40625 C 6.625 -3.113281 6.765625 -2.703125 6.765625 -2.171875 C 6.765625 -1.734375 6.628906 -1.335938 6.359375 -0.984375 C 6.097656 -0.640625 5.707031 -0.367188 5.1875 -0.171875 C 4.675781 0.015625 4.054688 0.109375 3.328125 0.109375 Z M 3.328125 0.109375 "/></g></g></g><g fill="#112934" fill-opacity="1"><g transform="translate(88.239657, 21.957004)"><g><path d="M 5.59375 -0.28125 C 5.394531 -0.15625 5.144531 -0.0625 4.84375 0 C 4.550781 0.0703125 4.238281 0.109375 3.90625 0.109375 C 2.988281 0.109375 2.285156 -0.109375 1.796875 -0.546875 C 1.304688 -0.992188 1.0625 -1.660156 1.0625 -2.546875 L 1.0625 -4.890625 L 0.046875 -4.890625 L 0.046875 -6.71875 L 1.0625 -6.71875 L 1.0625 -8.53125 L 3.515625 -8.53125 L 3.515625 -6.71875 L 5.109375 -6.71875 L 5.109375 -4.890625 L 3.515625 -4.890625 L 3.515625 -2.578125 C 3.515625 -2.328125 3.578125 -2.128906 3.703125 -1.984375 C 3.835938 -1.847656 4.019531 -1.78125 4.25 -1.78125 C 4.53125 -1.78125 4.78125 -1.851562 5 -2 Z M 5.59375 -0.28125 "/></g></g></g><g fill="#112934" fill-opacity="1"><g transform="translate(94.458299, 21.957004)"><g><path d="M 7.921875 -3.46875 C 7.921875 -3.457031 7.90625 -3.257812 7.875 -2.875 L 2.8125 -2.875 C 2.914062 -2.507812 3.113281 -2.226562 3.40625 -2.03125 C 3.695312 -1.84375 4.066406 -1.75 4.515625 -1.75 C 4.847656 -1.75 5.132812 -1.796875 5.375 -1.890625 C 5.625 -1.984375 5.875 -2.140625 6.125 -2.359375 L 7.421875 -1.015625 C 6.742188 -0.265625 5.75 0.109375 4.4375 0.109375 C 3.625 0.109375 2.90625 -0.0390625 2.28125 -0.34375 C 1.664062 -0.65625 1.1875 -1.082031 0.84375 -1.625 C 0.507812 -2.175781 0.34375 -2.800781 0.34375 -3.5 C 0.34375 -4.1875 0.507812 -4.800781 0.84375 -5.34375 C 1.175781 -5.894531 1.632812 -6.320312 2.21875 -6.625 C 2.800781 -6.9375 3.457031 -7.09375 4.1875 -7.09375 C 4.882812 -7.09375 5.515625 -6.945312 6.078125 -6.65625 C 6.640625 -6.375 7.085938 -5.957031 7.421875 -5.40625 C 7.753906 -4.863281 7.921875 -4.21875 7.921875 -3.46875 Z M 4.203125 -5.359375 C 3.816406 -5.359375 3.5 -5.25 3.25 -5.03125 C 3 -4.820312 2.835938 -4.53125 2.765625 -4.15625 L 5.625 -4.15625 C 5.550781 -4.53125 5.390625 -4.820312 5.140625 -5.03125 C 4.890625 -5.25 4.578125 -5.359375 4.203125 -5.359375 Z M 4.203125 -5.359375 "/></g></g></g><g fill="#112934" fill-opacity="1"><g transform="translate(103.187507, 21.957004)"><g><path d="M 9.875 -7.09375 C 10.726562 -7.09375 11.410156 -6.832031 11.921875 -6.3125 C 12.429688 -5.800781 12.6875 -5.023438 12.6875 -3.984375 L 12.6875 0 L 10.25 0 L 10.25 -3.59375 C 10.25 -4.082031 10.15625 -4.441406 9.96875 -4.671875 C 9.78125 -4.898438 9.519531 -5.015625 9.1875 -5.015625 C 8.820312 -5.015625 8.523438 -4.882812 8.296875 -4.625 C 8.078125 -4.375 7.96875 -3.988281 7.96875 -3.46875 L 7.96875 0 L 5.515625 0 L 5.515625 -3.59375 C 5.515625 -4.539062 5.164062 -5.015625 4.46875 -5.015625 C 4.09375 -5.015625 3.789062 -4.882812 3.5625 -4.625 C 3.34375 -4.375 3.234375 -3.988281 3.234375 -3.46875 L 3.234375 0 L 0.78125 0 L 0.78125 -6.984375 L 3.109375 -6.984375 L 3.109375 -6.25 C 3.367188 -6.53125 3.675781 -6.738281 4.03125 -6.875 C 4.394531 -7.019531 4.785156 -7.09375 5.203125 -7.09375 C 5.691406 -7.09375 6.128906 -7 6.515625 -6.8125 C 6.898438 -6.632812 7.210938 -6.363281 7.453125 -6 C 7.722656 -6.351562 8.066406 -6.625 8.484375 -6.8125 C 8.910156 -7 9.375 -7.09375 9.875 -7.09375 Z M 9.875 -7.09375 "/></g></g></g><g fill="#112934" fill-opacity="1"><g transform="translate(117.105206, 21.957004)"><g><path d="M 3.328125 0.109375 C 2.742188 0.109375 2.164062 0.046875 1.59375 -0.078125 C 1.03125 -0.210938 0.578125 -0.390625 0.234375 -0.609375 L 0.96875 -2.28125 C 1.28125 -2.082031 1.65625 -1.925781 2.09375 -1.8125 C 2.53125 -1.695312 2.96875 -1.640625 3.40625 -1.640625 C 3.789062 -1.640625 4.066406 -1.675781 4.234375 -1.75 C 4.410156 -1.832031 4.5 -1.953125 4.5 -2.109375 C 4.5 -2.265625 4.394531 -2.375 4.1875 -2.4375 C 3.988281 -2.5 3.671875 -2.5625 3.234375 -2.625 C 2.671875 -2.695312 2.191406 -2.785156 1.796875 -2.890625 C 1.410156 -3.003906 1.078125 -3.210938 0.796875 -3.515625 C 0.515625 -3.816406 0.375 -4.238281 0.375 -4.78125 C 0.375 -5.226562 0.503906 -5.625 0.765625 -5.96875 C 1.035156 -6.3125 1.425781 -6.582031 1.9375 -6.78125 C 2.445312 -6.988281 3.054688 -7.09375 3.765625 -7.09375 C 4.273438 -7.09375 4.78125 -7.039062 5.28125 -6.9375 C 5.78125 -6.832031 6.195312 -6.6875 6.53125 -6.5 L 5.796875 -4.84375 C 5.171875 -5.1875 4.5 -5.359375 3.78125 -5.359375 C 3.394531 -5.359375 3.113281 -5.3125 2.9375 -5.21875 C 2.757812 -5.125 2.671875 -5.003906 2.671875 -4.859375 C 2.671875 -4.703125 2.765625 -4.585938 2.953125 -4.515625 C 3.148438 -4.453125 3.476562 -4.390625 3.9375 -4.328125 C 4.507812 -4.242188 4.984375 -4.144531 5.359375 -4.03125 C 5.742188 -3.914062 6.070312 -3.707031 6.34375 -3.40625 C 6.625 -3.113281 6.765625 -2.703125 6.765625 -2.171875 C 6.765625 -1.734375 6.628906 -1.335938 6.359375 -0.984375 C 6.097656 -0.640625 5.707031 -0.367188 5.1875 -0.171875 C 4.675781 0.015625 4.054688 0.109375 3.328125 0.109375 Z M 3.328125 0.109375 "/></g></g></g><g fill="#112934" fill-opacity="1"><g transform="translate(124.611317, 21.957004)"><g/></g></g><g fill="#112934" fill-opacity="1"><g transform="translate(128.821514, 21.957004)"><g><path d="M 0.90625 -9.015625 L 3.453125 -9.015625 L 3.453125 0 L 0.90625 0 Z M 0.90625 -9.015625 "/></g></g></g><g fill="#112934" fill-opacity="1"><g transform="translate(133.649692, 21.957004)"><g><path d="M 2.8125 -6.984375 L 0.046875 -6.984375 L 0.046875 -9.015625 L 8.125 -9.015625 L 8.125 -6.984375 L 5.375 -6.984375 L 5.375 0 L 2.8125 0 Z M 2.8125 -6.984375 "/></g></g></g></svg>